<svg id="Capa_1" enable-background="new 0 0 512 512" height="512" viewBox="0 0 512 512" width="512" xmlns="http://www.w3.org/2000/svg"><g><g><path d="m424.815 432.518h-337.63c-4.266 0-7.724-3.458-7.724-7.724v-337.632c0-4.266 3.458-7.724 7.724-7.724h337.631c4.266 0 7.724 3.458 7.724 7.724v337.631c0 4.266-3.458 7.725-7.725 7.725zm-329.906-15.449h322.182v-322.182h-322.182z" fill="#ffe179"/></g><g><path d="m511.934 86.121c0 25.028-10.676 47.563-27.723 63.298-15.349 14.168-34.852 20.795-57.387 20.795s-44.059-6.627-59.408-20.795c-17.047-15.735-27.723-38.27-27.723-63.298-.001-47.563 38.557-86.121 86.12-86.121s86.121 38.558 86.121 86.121z" fill="#eaf6ff"/><path d="m425.813 0c-5.277 0-10.434.5-15.449 1.409 40.186 7.283 70.672 42.425 70.672 84.712s-30.486 77.429-70.672 84.712c5.015.909 11.182-.619 16.459-.619 22.535 0 42.038-6.627 57.387-20.795 17.047-15.735 27.723-38.27 27.723-63.298.001-47.563-38.557-86.121-86.12-86.121z" fill="#d8ecfe"/><path d="m426.823 170.213c22.535 0 42.035-6.631 57.384-20.799-2.832-29.762-27.89-53.044-58.394-53.044-30.504 0-55.562 23.282-58.394 53.044 11.756 10.851 26.539 18.471 42.94 21.444 5.014.909 11.189-.645 16.464-.645z" fill="#f58a97"/><path d="m431.576 172.028c17.862-1.245 37.264-8.254 52.478-22.479.051-.047.1-.097.151-.144-1.001-10.503-4.78-20.191-10.579-28.341-11.393 25.607-34.903 44.629-63.262 49.768 8.056 1.352 11.31 1.886 21.212 1.196z" fill="#f07281"/><path d="m425.813 109.169c-17.533 0-31.747-14.214-31.747-31.747v-10.711c0-17.533 14.214-31.747 31.747-31.747 17.533 0 31.747 14.214 31.747 31.747v10.712c0 17.533-14.214 31.746-31.747 31.746z" fill="#ffcebf"/><path d="m425.813 34.964c-5.61 0-10.876 1.461-15.449 4.014 9.721 5.427 16.298 15.81 16.298 27.733v10.712c0 11.924-6.577 22.307-16.298 27.733 4.573 2.553 9.839 4.013 15.449 4.013 17.533 0 31.747-14.214 31.747-31.747v-10.711c0-17.534-14.214-31.747-31.747-31.747z" fill="#ffb09e"/></g><g><path d="m511.934 425.791c0 25.028-10.676 47.563-27.723 63.298-15.349 14.168-34.852 20.795-57.387 20.795s-44.059-6.627-59.408-20.795c-17.047-15.735-27.723-38.27-27.723-63.298 0-47.563 38.558-86.121 86.121-86.121s86.12 38.558 86.12 86.121z" fill="#eaf6ff"/><path d="m425.813 339.67c-5.277 0-10.434.5-15.449 1.409 40.186 7.283 70.672 42.425 70.672 84.712s-30.486 77.429-70.672 84.712c5.015.909 11.182-.619 16.459-.619 22.535 0 42.038-6.627 57.387-20.795 17.047-15.735 27.723-38.27 27.723-63.298.001-47.563-38.557-86.121-86.12-86.121z" fill="#d8ecfe"/><path d="m426.823 509.883c22.535 0 42.035-6.631 57.384-20.799-2.832-29.762-27.89-53.044-58.394-53.044-30.504 0-55.562 23.282-58.394 53.044 11.756 10.851 26.539 18.471 42.94 21.444 5.014.909 11.189-.645 16.464-.645z" fill="#f58a97"/><path d="m431.576 511.698c17.862-1.245 37.264-8.254 52.478-22.479.051-.047.1-.097.151-.144-1.001-10.503-4.78-20.191-10.579-28.341-11.393 25.607-34.903 44.629-63.262 49.768 8.056 1.353 11.31 1.887 21.212 1.196z" fill="#f07281"/><path d="m425.813 448.84c-17.533 0-31.747-14.214-31.747-31.747v-10.712c0-17.533 14.214-31.747 31.747-31.747 17.533 0 31.747 14.214 31.747 31.747v10.712c0 17.533-14.214 31.747-31.747 31.747z" fill="#ffcebf"/><path d="m425.813 374.634c-5.61 0-10.876 1.461-15.449 4.014 9.721 5.427 16.298 15.81 16.298 27.733v10.712c0 11.924-6.577 22.307-16.298 27.733 4.573 2.553 9.839 4.013 15.449 4.013 17.533 0 31.747-14.214 31.747-31.747v-10.712c0-17.532-14.214-31.746-31.747-31.746z" fill="#ffb09e"/></g><g><path d="m172.308 86.121c0 25.028-10.676 47.563-27.723 63.298-15.349 14.168-34.852 20.795-57.387 20.795s-44.059-6.627-59.408-20.795c-17.047-15.735-27.723-38.27-27.723-63.298-.001-47.563 38.557-86.121 86.12-86.121s86.121 38.558 86.121 86.121z" fill="#eaf6ff"/><path d="m86.187 0c-5.277 0-10.434.5-15.449 1.409 40.186 7.283 70.672 42.425 70.672 84.712s-30.486 77.429-70.672 84.712c5.015.909 11.182-.619 16.459-.619 22.535 0 42.038-6.627 57.387-20.795 17.047-15.735 27.723-38.27 27.723-63.298.001-47.563-38.557-86.121-86.12-86.121z" fill="#d8ecfe"/><path d="m87.197 170.213c22.535 0 42.035-6.631 57.384-20.799-2.832-29.762-27.89-53.044-58.394-53.044-30.504 0-55.562 23.282-58.394 53.044 11.756 10.851 26.539 18.471 42.94 21.444 5.014.909 11.189-.645 16.464-.645z" fill="#aee69c"/><path d="m91.951 172.028c17.862-1.245 37.264-8.254 52.478-22.479.051-.047.1-.097.151-.144-1.001-10.503-4.78-20.191-10.579-28.341-11.393 25.607-34.903 44.629-63.262 49.768 8.055 1.352 11.309 1.886 21.212 1.196z" fill="#89daa4"/><path d="m86.187 109.169c-17.533 0-31.747-14.214-31.747-31.747v-10.711c0-17.533 14.214-31.747 31.747-31.747 17.533 0 31.747 14.214 31.747 31.747v10.712c0 17.533-14.214 31.746-31.747 31.746z" fill="#ffcebf"/><path d="m86.187 34.964c-5.61 0-10.876 1.461-15.449 4.014 9.721 5.427 16.298 15.81 16.298 27.733v10.712c0 11.924-6.577 22.307-16.298 27.733 4.573 2.553 9.839 4.013 15.449 4.013 17.533 0 31.747-14.214 31.747-31.747v-10.711c0-17.534-14.214-31.747-31.747-31.747z" fill="#ffb09e"/></g><g><path d="m172.308 425.791c0 25.028-10.676 47.563-27.723 63.298-15.349 14.168-34.852 20.795-57.387 20.795s-44.059-6.627-59.408-20.795c-17.047-15.735-27.723-38.27-27.723-63.298 0-47.563 38.558-86.121 86.121-86.121s86.12 38.558 86.12 86.121z" fill="#eaf6ff"/><path d="m86.187 339.67c-5.277 0-10.434.5-15.449 1.409 40.186 7.283 70.672 42.425 70.672 84.712s-30.486 77.429-70.672 84.712c5.015.909 11.182-.619 16.459-.619 22.535 0 42.038-6.627 57.387-20.795 17.047-15.735 27.723-38.27 27.723-63.298.001-47.563-38.557-86.121-86.12-86.121z" fill="#d8ecfe"/><path d="m87.197 509.883c22.535 0 42.035-6.631 57.384-20.799-2.832-29.762-27.89-53.044-58.394-53.044-30.504 0-55.562 23.282-58.394 53.044 11.756 10.851 26.539 18.471 42.94 21.444 5.014.909 11.189-.645 16.464-.645z" fill="#8fd8fa"/><path d="m91.951 511.698c17.862-1.245 37.264-8.254 52.478-22.479.051-.047.1-.097.151-.144-1.001-10.503-4.78-20.191-10.579-28.341-11.393 25.607-34.903 44.629-63.262 49.768 8.055 1.353 11.309 1.887 21.212 1.196z" fill="#68cbf2"/><path d="m86.187 448.84c-17.533 0-31.747-14.214-31.747-31.747v-10.712c0-17.533 14.214-31.747 31.747-31.747 17.533 0 31.747 14.214 31.747 31.747v10.712c0 17.533-14.214 31.747-31.747 31.747z" fill="#ffcebf"/><path d="m86.187 374.634c-5.61 0-10.876 1.461-15.449 4.014 9.721 5.427 16.298 15.81 16.298 27.733v10.712c0 11.924-6.577 22.307-16.298 27.733 4.573 2.553 9.839 4.013 15.449 4.013 17.533 0 31.747-14.214 31.747-31.747v-10.712c0-17.532-14.214-31.746-31.747-31.746z" fill="#ffb09e"/></g><g><circle cx="256" cy="255.978" fill="#ffe179" r="120.308"/><path d="m256 135.67c-5.235 0-10.391.336-15.449.984 59.148 7.582 104.859 58.114 104.859 119.324s-45.711 111.742-104.859 119.324c5.058.648 10.214.984 15.449.984 66.444 0 120.308-53.864 120.308-120.308s-53.864-120.308-120.308-120.308z" fill="#fbd268"/><g fill="#fff"><circle cx="256" cy="181.6" r="18.016"/><path d="m274.016 330.355v-86.711c0-9.95-8.066-18.016-18.016-18.016-9.95 0-18.016 8.066-18.016 18.016v86.711c0 9.95 8.066 18.016 18.016 18.016 9.95 0 18.016-8.066 18.016-18.016z"/></g></g></g></svg>